<svg xmlns="http://www.w3.org/2000/svg" xmlns:xlink="http://www.w3.org/1999/xlink" version="1.1" class="marks" width="676" height="349" viewBox="0 0 676 349"><rect width="676" height="349" fill="white"/><g fill="none" stroke-miterlimit="10" transform="translate(27,11)"><g class="mark-group role-frame root" role="graphics-object" aria-roledescription="group mark container"><g transform="translate(0,0)"><path class="background" aria-hidden="true" d="M0,0h0v300h0Z"/><g><g class="mark-group role-scope concat_0_group" role="graphics-object" aria-roledescription="group mark container"><g transform="translate(0,0)"><path class="background" aria-hidden="true" d="M0.5,0.5h300v300h-300Z" stroke="#ddd"/><g><g class="mark-group role-axis" aria-hidden="true"><g transform="translate(0.5,300.5)"><path class="background" aria-hidden="true" d="M0,0h0v0h0Z" pointer-events="none"/><g><g class="mark-rule role-axis-grid" pointer-events="none"><line transform="translate(0,-300)" x2="0" y2="300" stroke="#ddd" stroke-width="1" opacity="1"/><line transform="translate(33,-300)" x2="0" y2="300" stroke="#ddd" stroke-width="1" opacity="1"/><line transform="translate(67,-300)" x2="0" y2="300" stroke="#ddd" stroke-width="1" opacity="1"/><line transform="translate(100,-300)" x2="0" y2="300" stroke="#ddd" stroke-width="1" opacity="1"/><line transform="translate(133,-300)" x2="0" y2="300" stroke="#ddd" stroke-width="1" opacity="1"/><line transform="translate(167,-300)" x2="0" y2="300" stroke="#ddd" stroke-width="1" opacity="1"/><line transform="translate(200,-300)" x2="0" y2="300" stroke="#ddd" stroke-width="1" opacity="1"/><line transform="translate(233,-300)" x2="0" y2="300" stroke="#ddd" stroke-width="1" opacity="1"/><line transform="translate(267,-300)" x2="0" y2="300" stroke="#ddd" stroke-width="1" opacity="1"/><line transform="translate(300,-300)" x2="0" y2="300" stroke="#ddd" stroke-width="1" opacity="1"/></g></g><path class="foreground" aria-hidden="true" d="" pointer-events="none" display="none"/></g></g><g class="mark-group role-axis" aria-hidden="true"><g transform="translate(0.5,0.5)"><path class="background" aria-hidden="true" d="M0,0h0v0h0Z" pointer-events="none"/><g><g class="mark-rule role-axis-grid" pointer-events="none"><line transform="translate(0,300)" x2="300" y2="0" stroke="#ddd" stroke-width="1" opacity="1"/><line transform="translate(0,250)" x2="300" y2="0" stroke="#ddd" stroke-width="1" opacity="1"/><line transform="translate(0,200)" x2="300" y2="0" stroke="#ddd" stroke-width="1" opacity="1"/><line transform="translate(0,150)" x2="300" y2="0" stroke="#ddd" stroke-width="1" opacity="1"/><line transform="translate(0,100)" x2="300" y2="0" stroke="#ddd" stroke-width="1" opacity="1"/><line transform="translate(0,50)" x2="300" y2="0" stroke="#ddd" stroke-width="1" opacity="1"/><line transform="translate(0,0)" x2="300" y2="0" stroke="#ddd" stroke-width="1" opacity="1"/></g></g><path class="foreground" aria-hidden="true" d="" pointer-events="none" display="none"/></g></g><g class="mark-group role-axis" role="graphics-symbol" aria-roledescription="axis" aria-label="X-axis titled 'Component Size' for a linear scale with values from −20 to 160"><g transform="translate(0.5,300.5)"><path class="background" aria-hidden="true" d="M0,0h0v0h0Z" pointer-events="none"/><g><g class="mark-rule role-axis-tick" pointer-events="none"><line transform="translate(0,0)" x2="0" y2="5" stroke="#888" stroke-width="1" opacity="1"/><line transform="translate(33,0)" x2="0" y2="5" stroke="#888" stroke-width="1" opacity="1"/><line transform="translate(67,0)" x2="0" y2="5" stroke="#888" stroke-width="1" opacity="1"/><line transform="translate(100,0)" x2="0" y2="5" stroke="#888" stroke-width="1" opacity="1"/><line transform="translate(133,0)" x2="0" y2="5" stroke="#888" stroke-width="1" opacity="1"/><line transform="translate(167,0)" x2="0" y2="5" stroke="#888" stroke-width="1" opacity="1"/><line transform="translate(200,0)" x2="0" y2="5" stroke="#888" stroke-width="1" opacity="1"/><line transform="translate(233,0)" x2="0" y2="5" stroke="#888" stroke-width="1" opacity="1"/><line transform="translate(267,0)" x2="0" y2="5" stroke="#888" stroke-width="1" opacity="1"/><line transform="translate(300,0)" x2="0" y2="5" stroke="#888" stroke-width="1" opacity="1"/></g><g class="mark-text role-axis-label" pointer-events="none"><text text-anchor="start" transform="translate(0,15)" font-family="sans-serif" font-size="10px" fill="#000" opacity="1">−20</text><text text-anchor="middle" transform="translate(33.33333333333333,15)" font-family="sans-serif" font-size="10px" fill="#000" opacity="1">0</text><text text-anchor="middle" transform="translate(66.66666666666666,15)" font-family="sans-serif" font-size="10px" fill="#000" opacity="1">20</text><text text-anchor="middle" transform="translate(100,15)" font-family="sans-serif" font-size="10px" fill="#000" opacity="1">40</text><text text-anchor="middle" transform="translate(133.33333333333331,15)" font-family="sans-serif" font-size="10px" fill="#000" opacity="1">60</text><text text-anchor="middle" transform="translate(166.66666666666669,15)" font-family="sans-serif" font-size="10px" fill="#000" opacity="1">80</text><text text-anchor="middle" transform="translate(200,15)" font-family="sans-serif" font-size="10px" fill="#000" opacity="1">100</text><text text-anchor="middle" transform="translate(233.33333333333334,15)" font-family="sans-serif" font-size="10px" fill="#000" opacity="1">120</text><text text-anchor="middle" transform="translate(266.66666666666663,15)" font-family="sans-serif" font-size="10px" fill="#000" opacity="1">140</text><text text-anchor="end" transform="translate(300,15)" font-family="sans-serif" font-size="10px" fill="#000" opacity="1">160</text></g><g class="mark-rule role-axis-domain" pointer-events="none"><line transform="translate(0,0)" x2="300" y2="0" stroke="#888" stroke-width="1" opacity="1"/></g><g class="mark-text role-axis-title" pointer-events="none"><text text-anchor="middle" transform="translate(150,30)" font-family="sans-serif" font-size="11px" font-weight="bold" fill="#000" opacity="1">Component Size</text></g></g><path class="foreground" aria-hidden="true" d="" pointer-events="none" display="none"/></g></g><g class="mark-group role-axis" role="graphics-symbol" aria-roledescription="axis" aria-label="Y-axis for a linear scale with values from 0.0 to 3.0"><g transform="translate(0.5,0.5)"><path class="background" aria-hidden="true" d="M0,0h0v0h0Z" pointer-events="none"/><g><g class="mark-rule role-axis-tick" pointer-events="none"><line transform="translate(0,300)" x2="-5" y2="0" stroke="#888" stroke-width="1" opacity="1"/><line transform="translate(0,250)" x2="-5" y2="0" stroke="#888" stroke-width="1" opacity="1"/><line transform="translate(0,200)" x2="-5" y2="0" stroke="#888" stroke-width="1" opacity="1"/><line transform="translate(0,150)" x2="-5" y2="0" stroke="#888" stroke-width="1" opacity="1"/><line transform="translate(0,100)" x2="-5" y2="0" stroke="#888" stroke-width="1" opacity="1"/><line transform="translate(0,50)" x2="-5" y2="0" stroke="#888" stroke-width="1" opacity="1"/><line transform="translate(0,0)" x2="-5" y2="0" stroke="#888" stroke-width="1" opacity="1"/></g><g class="mark-text role-axis-label" pointer-events="none"><text text-anchor="end" transform="translate(-7,303)" font-family="sans-serif" font-size="10px" fill="#000" opacity="1">0.0</text><text text-anchor="end" transform="translate(-7,253)" font-family="sans-serif" font-size="10px" fill="#000" opacity="1">0.5</text><text text-anchor="end" transform="translate(-7,203.00000000000003)" font-family="sans-serif" font-size="10px" fill="#000" opacity="1">1.0</text><text text-anchor="end" transform="translate(-7,153)" font-family="sans-serif" font-size="10px" fill="#000" opacity="1">1.5</text><text text-anchor="end" transform="translate(-7,103.00000000000001)" font-family="sans-serif" font-size="10px" fill="#000" opacity="1">2.0</text><text text-anchor="end" transform="translate(-7,52.999999999999986)" font-family="sans-serif" font-size="10px" fill="#000" opacity="1">2.5</text><text text-anchor="end" transform="translate(-7,3)" font-family="sans-serif" font-size="10px" fill="#000" opacity="1">3.0</text></g><g class="mark-rule role-axis-domain" pointer-events="none"><line transform="translate(0,300)" x2="0" y2="-300" stroke="#888" stroke-width="1" opacity="1"/></g></g><path class="foreground" aria-hidden="true" d="" pointer-events="none" display="none"/></g></g><g class="mark-rect role-mark concat_0_marks" role="graphics-object" aria-roledescription="rect mark container"><path aria-label="Component Size: 150; Count of Records: 1" role="graphics-symbol" aria-roledescription="bar" d="M280.8333333333333,200.00000000000003h5v99.99999999999997h-5Z" fill="#0F7B6C"/><path aria-label="Component Size: 2; Count of Records: 3" role="graphics-symbol" aria-roledescription="bar" d="M34.166666666666664,0h5v300h-5Z" fill="#0F7B6C"/></g></g><path class="foreground" aria-hidden="true" d="" display="none"/></g></g><g class="mark-group role-scope concat_1_group" role="graphics-object" aria-roledescription="group mark container"><g transform="translate(342,0)"><path class="background" aria-hidden="true" d="M0.5,0.5h300v300h-300Z" stroke="#ddd"/><g><g class="mark-group role-axis" aria-hidden="true"><g transform="translate(0.5,300.5)"><path class="background" aria-hidden="true" d="M0,0h0v0h0Z" pointer-events="none"/><g><g class="mark-rule role-axis-grid" pointer-events="none"><line transform="translate(23,-300)" x2="0" y2="300" stroke="#ddd" stroke-width="1" opacity="1"/><line transform="translate(69,-300)" x2="0" y2="300" stroke="#ddd" stroke-width="1" opacity="1"/><line transform="translate(115,-300)" x2="0" y2="300" stroke="#ddd" stroke-width="1" opacity="1"/><line transform="translate(162,-300)" x2="0" y2="300" stroke="#ddd" stroke-width="1" opacity="1"/><line transform="translate(208,-300)" x2="0" y2="300" stroke="#ddd" stroke-width="1" opacity="1"/><line transform="translate(254,-300)" x2="0" y2="300" stroke="#ddd" stroke-width="1" opacity="1"/><line transform="translate(300,-300)" x2="0" y2="300" stroke="#ddd" stroke-width="1" opacity="1"/></g></g><path class="foreground" aria-hidden="true" d="" pointer-events="none" display="none"/></g></g><g class="mark-group role-axis" aria-hidden="true"><g transform="translate(0.5,0.5)"><path class="background" aria-hidden="true" d="M0,0h0v0h0Z" pointer-events="none"/><g><g class="mark-rule role-axis-grid" pointer-events="none"><line transform="translate(0,300)" x2="300" y2="0" stroke="#ddd" stroke-width="1" opacity="1"/><line transform="translate(0,267)" x2="300" y2="0" stroke="#ddd" stroke-width="1" opacity="1"/><line transform="translate(0,233)" x2="300" y2="0" stroke="#ddd" stroke-width="1" opacity="1"/><line transform="translate(0,200)" x2="300" y2="0" stroke="#ddd" stroke-width="1" opacity="1"/><line transform="translate(0,167)" x2="300" y2="0" stroke="#ddd" stroke-width="1" opacity="1"/><line transform="translate(0,133)" x2="300" y2="0" stroke="#ddd" stroke-width="1" opacity="1"/><line transform="translate(0,100)" x2="300" y2="0" stroke="#ddd" stroke-width="1" opacity="1"/><line transform="translate(0,67)" x2="300" y2="0" stroke="#ddd" stroke-width="1" opacity="1"/><line transform="translate(0,33)" x2="300" y2="0" stroke="#ddd" stroke-width="1" opacity="1"/><line transform="translate(0,0)" x2="300" y2="0" stroke="#ddd" stroke-width="1" opacity="1"/></g></g><path class="foreground" aria-hidden="true" d="" pointer-events="none" display="none"/></g></g><g class="mark-group role-axis" role="graphics-symbol" aria-roledescription="axis" aria-label="X-axis titled 'Node Degree' for a linear scale with values from −100 to 1,200"><g transform="translate(0.5,300.5)"><path class="background" aria-hidden="true" d="M0,0h0v0h0Z" pointer-events="none"/><g><g class="mark-rule role-axis-tick" pointer-events="none"><line transform="translate(23,0)" x2="0" y2="5" stroke="#888" stroke-width="1" opacity="1"/><line transform="translate(69,0)" x2="0" y2="5" stroke="#888" stroke-width="1" opacity="1"/><line transform="translate(115,0)" x2="0" y2="5" stroke="#888" stroke-width="1" opacity="1"/><line transform="translate(162,0)" x2="0" y2="5" stroke="#888" stroke-width="1" opacity="1"/><line transform="translate(208,0)" x2="0" y2="5" stroke="#888" stroke-width="1" opacity="1"/><line transform="translate(254,0)" x2="0" y2="5" stroke="#888" stroke-width="1" opacity="1"/><line transform="translate(300,0)" x2="0" y2="5" stroke="#888" stroke-width="1" opacity="1"/></g><g class="mark-text role-axis-label" pointer-events="none"><text text-anchor="middle" transform="translate(23.076923076923077,15)" font-family="sans-serif" font-size="10px" fill="#000" opacity="1">0</text><text text-anchor="middle" transform="translate(69.23076923076924,15)" font-family="sans-serif" font-size="10px" fill="#000" opacity="1">200</text><text text-anchor="middle" transform="translate(115.38461538461539,15)" font-family="sans-serif" font-size="10px" fill="#000" opacity="1">400</text><text text-anchor="middle" transform="translate(161.53846153846152,15)" font-family="sans-serif" font-size="10px" fill="#000" opacity="1">600</text><text text-anchor="middle" transform="translate(207.69230769230768,15)" font-family="sans-serif" font-size="10px" fill="#000" opacity="1">800</text><text text-anchor="middle" transform="translate(253.84615384615384,15)" font-family="sans-serif" font-size="10px" fill="#000" opacity="1">1,000</text><text text-anchor="end" transform="translate(300,15)" font-family="sans-serif" font-size="10px" fill="#000" opacity="1">1,200</text></g><g class="mark-rule role-axis-domain" pointer-events="none"><line transform="translate(0,0)" x2="300" y2="0" stroke="#888" stroke-width="1" opacity="1"/></g><g class="mark-text role-axis-title" pointer-events="none"><text text-anchor="middle" transform="translate(150,30)" font-family="sans-serif" font-size="11px" font-weight="bold" fill="#000" opacity="1">Node Degree</text></g></g><path class="foreground" aria-hidden="true" d="" pointer-events="none" display="none"/></g></g><g class="mark-group role-axis" role="graphics-symbol" aria-roledescription="axis" aria-label="Y-axis for a linear scale with values from 0 to 18"><g transform="translate(0.5,0.5)"><path class="background" aria-hidden="true" d="M0,0h0v0h0Z" pointer-events="none"/><g><g class="mark-rule role-axis-tick" pointer-events="none"><line transform="translate(0,300)" x2="-5" y2="0" stroke="#888" stroke-width="1" opacity="1"/><line transform="translate(0,267)" x2="-5" y2="0" stroke="#888" stroke-width="1" opacity="1"/><line transform="translate(0,233)" x2="-5" y2="0" stroke="#888" stroke-width="1" opacity="1"/><line transform="translate(0,200)" x2="-5" y2="0" stroke="#888" stroke-width="1" opacity="1"/><line transform="translate(0,167)" x2="-5" y2="0" stroke="#888" stroke-width="1" opacity="1"/><line transform="translate(0,133)" x2="-5" y2="0" stroke="#888" stroke-width="1" opacity="1"/><line transform="translate(0,100)" x2="-5" y2="0" stroke="#888" stroke-width="1" opacity="1"/><line transform="translate(0,67)" x2="-5" y2="0" stroke="#888" stroke-width="1" opacity="1"/><line transform="translate(0,33)" x2="-5" y2="0" stroke="#888" stroke-width="1" opacity="1"/><line transform="translate(0,0)" x2="-5" y2="0" stroke="#888" stroke-width="1" opacity="1"/></g><g class="mark-text role-axis-label" pointer-events="none"><text text-anchor="end" transform="translate(-7,303)" font-family="sans-serif" font-size="10px" fill="#000" opacity="1">0</text><text text-anchor="end" transform="translate(-7,269.66666666666663)" font-family="sans-serif" font-size="10px" fill="#000" opacity="1">2</text><text text-anchor="end" transform="translate(-7,236.33333333333334)" font-family="sans-serif" font-size="10px" fill="#000" opacity="1">4</text><text text-anchor="end" transform="translate(-7,203.00000000000003)" font-family="sans-serif" font-size="10px" fill="#000" opacity="1">6</text><text text-anchor="end" transform="translate(-7,169.66666666666669)" font-family="sans-serif" font-size="10px" fill="#000" opacity="1">8</text><text text-anchor="end" transform="translate(-7,136.33333333333331)" font-family="sans-serif" font-size="10px" fill="#000" opacity="1">10</text><text text-anchor="end" transform="translate(-7,103.00000000000001)" font-family="sans-serif" font-size="10px" fill="#000" opacity="1">12</text><text text-anchor="end" transform="translate(-7,69.66666666666666)" font-family="sans-serif" font-size="10px" fill="#000" opacity="1">14</text><text text-anchor="end" transform="translate(-7,36.33333333333335)" font-family="sans-serif" font-size="10px" fill="#000" opacity="1">16</text><text text-anchor="end" transform="translate(-7,3)" font-family="sans-serif" font-size="10px" fill="#000" opacity="1">18</text></g><g class="mark-rule role-axis-domain" pointer-events="none"><line transform="translate(0,300)" x2="0" y2="-300" stroke="#888" stroke-width="1" opacity="1"/></g></g><path class="foreground" aria-hidden="true" d="" pointer-events="none" display="none"/></g></g><g class="mark-rect role-mark concat_1_marks" role="graphics-object" aria-roledescription="rect mark container"><path aria-label="Node Degree: 430; Count of Records: 1" role="graphics-symbol" aria-roledescription="bar" d="M119.8076923076923,283.3333333333333h5v16.666666666666686h-5Z" fill="#0B6E99"/><path aria-label="Node Degree: 440; Count of Records: 1" role="graphics-symbol" aria-roledescription="bar" d="M122.11538461538463,283.3333333333333h5v16.666666666666686h-5Z" fill="#0B6E99"/><path aria-label="Node Degree: 400; Count of Records: 1" role="graphics-symbol" aria-roledescription="bar" d="M112.88461538461539,283.3333333333333h5v16.666666666666686h-5Z" fill="#0B6E99"/><path aria-label="Node Degree: 513; Count of Records: 1" role="graphics-symbol" aria-roledescription="bar" d="M138.96153846153845,283.3333333333333h5v16.666666666666686h-5Z" fill="#0B6E99"/><path aria-label="Node Degree: 429; Count of Records: 2" role="graphics-symbol" aria-roledescription="bar" d="M119.57692307692308,266.66666666666663h5v33.33333333333337h-5Z" fill="#0B6E99"/><path aria-label="Node Degree: 587; Count of Records: 1" role="graphics-symbol" aria-roledescription="bar" d="M156.03846153846152,283.3333333333333h5v16.666666666666686h-5Z" fill="#0B6E99"/><path aria-label="Node Degree: 456; Count of Records: 1" role="graphics-symbol" aria-roledescription="bar" d="M125.80769230769232,283.3333333333333h5v16.666666666666686h-5Z" fill="#0B6E99"/><path aria-label="Node Degree: 457; Count of Records: 1" role="graphics-symbol" aria-roledescription="bar" d="M126.03846153846155,283.3333333333333h5v16.666666666666686h-5Z" fill="#0B6E99"/><path aria-label="Node Degree: 371; Count of Records: 1" role="graphics-symbol" aria-roledescription="bar" d="M106.1923076923077,283.3333333333333h5v16.666666666666686h-5Z" fill="#0B6E99"/><path aria-label="Node Degree: 851; Count of Records: 1" role="graphics-symbol" aria-roledescription="bar" d="M216.96153846153848,283.3333333333333h5v16.666666666666686h-5Z" fill="#0B6E99"/><path aria-label="Node Degree: 706; Count of Records: 1" role="graphics-symbol" aria-roledescription="bar" d="M183.5,283.3333333333333h5v16.666666666666686h-5Z" fill="#0B6E99"/><path aria-label="Node Degree: 1128; Count of Records: 1" role="graphics-symbol" aria-roledescription="bar" d="M280.8846153846154,283.3333333333333h5v16.666666666666686h-5Z" fill="#0B6E99"/><path aria-label="Node Degree: 603; Count of Records: 1" role="graphics-symbol" aria-roledescription="bar" d="M159.73076923076923,283.3333333333333h5v16.666666666666686h-5Z" fill="#0B6E99"/><path aria-label="Node Degree: 9; Count of Records: 3" role="graphics-symbol" aria-roledescription="bar" d="M22.653846153846153,250h5v50h-5Z" fill="#0B6E99"/><path aria-label="Node Degree: 531; Count of Records: 1" role="graphics-symbol" aria-roledescription="bar" d="M143.1153846153846,283.3333333333333h5v16.666666666666686h-5Z" fill="#0B6E99"/><path aria-label="Node Degree: 68; Count of Records: 1" role="graphics-symbol" aria-roledescription="bar" d="M36.26923076923077,283.3333333333333h5v16.666666666666686h-5Z" fill="#0B6E99"/><path aria-label="Node Degree: 460; Count of Records: 1" role="graphics-symbol" aria-roledescription="bar" d="M126.73076923076923,283.3333333333333h5v16.666666666666686h-5Z" fill="#0B6E99"/><path aria-label="Node Degree: 39; Count of Records: 1" role="graphics-symbol" aria-roledescription="bar" d="M29.57692307692308,283.3333333333333h5v16.666666666666686h-5Z" fill="#0B6E99"/><path aria-label="Node Degree: 73; Count of Records: 1" role="graphics-symbol" aria-roledescription="bar" d="M37.42307692307692,283.3333333333333h5v16.666666666666686h-5Z" fill="#0B6E99"/><path aria-label="Node Degree: 30; Count of Records: 2" role="graphics-symbol" aria-roledescription="bar" d="M27.5,266.66666666666663h5v33.33333333333337h-5Z" fill="#0B6E99"/><path aria-label="Node Degree: 115; Count of Records: 1" role="graphics-symbol" aria-roledescription="bar" d="M47.11538461538461,283.3333333333333h5v16.666666666666686h-5Z" fill="#0B6E99"/><path aria-label="Node Degree: 170; Count of Records: 1" role="graphics-symbol" aria-roledescription="bar" d="M59.807692307692314,283.3333333333333h5v16.666666666666686h-5Z" fill="#0B6E99"/><path aria-label="Node Degree: 171; Count of Records: 1" role="graphics-symbol" aria-roledescription="bar" d="M60.03846153846153,283.3333333333333h5v16.666666666666686h-5Z" fill="#0B6E99"/><path aria-label="Node Degree: 163; Count of Records: 1" role="graphics-symbol" aria-roledescription="bar" d="M58.19230769230769,283.3333333333333h5v16.666666666666686h-5Z" fill="#0B6E99"/><path aria-label="Node Degree: 79; Count of Records: 1" role="graphics-symbol" aria-roledescription="bar" d="M38.80769230769231,283.3333333333333h5v16.666666666666686h-5Z" fill="#0B6E99"/><path aria-label="Node Degree: 124; Count of Records: 1" role="graphics-symbol" aria-roledescription="bar" d="M49.19230769230769,283.3333333333333h5v16.666666666666686h-5Z" fill="#0B6E99"/><path aria-label="Node Degree: 49; Count of Records: 2" role="graphics-symbol" aria-roledescription="bar" d="M31.884615384615387,266.66666666666663h5v33.33333333333337h-5Z" fill="#0B6E99"/><path aria-label="Node Degree: 13; Count of Records: 2" role="graphics-symbol" aria-roledescription="bar" d="M23.576923076923077,266.66666666666663h5v33.33333333333337h-5Z" fill="#0B6E99"/><path aria-label="Node Degree: 75; Count of Records: 1" role="graphics-symbol" aria-roledescription="bar" d="M37.88461538461538,283.3333333333333h5v16.666666666666686h-5Z" fill="#0B6E99"/><path aria-label="Node Degree: 376; Count of Records: 1" role="graphics-symbol" aria-roledescription="bar" d="M107.34615384615385,283.3333333333333h5v16.666666666666686h-5Z" fill="#0B6E99"/><path aria-label="Node Degree: 563; Count of Records: 1" role="graphics-symbol" aria-roledescription="bar" d="M150.5,283.3333333333333h5v16.666666666666686h-5Z" fill="#0B6E99"/><path aria-label="Node Degree: 32; Count of Records: 4" role="graphics-symbol" aria-roledescription="bar" d="M27.96153846153846,233.33333333333334h5v66.66666666666666h-5Z" fill="#0B6E99"/><path aria-label="Node Degree: 26; Count of Records: 2" role="graphics-symbol" aria-roledescription="bar" d="M26.576923076923077,266.66666666666663h5v33.33333333333337h-5Z" fill="#0B6E99"/><path aria-label="Node Degree: 1; Count of Records: 17" role="graphics-symbol" aria-roledescription="bar" d="M20.807692307692307,16.666666666666675h5v283.3333333333333h-5Z" fill="#0B6E99"/><path aria-label="Node Degree: 37; Count of Records: 2" role="graphics-symbol" aria-roledescription="bar" d="M29.115384615384613,266.66666666666663h5v33.33333333333337h-5Z" fill="#0B6E99"/><path aria-label="Node Degree: 27; Count of Records: 4" role="graphics-symbol" aria-roledescription="bar" d="M26.807692307692307,233.33333333333334h5v66.66666666666666h-5Z" fill="#0B6E99"/><path aria-label="Node Degree: 12; Count of Records: 4" role="graphics-symbol" aria-roledescription="bar" d="M23.346153846153847,233.33333333333334h5v66.66666666666666h-5Z" fill="#0B6E99"/><path aria-label="Node Degree: 17; Count of Records: 3" role="graphics-symbol" aria-roledescription="bar" d="M24.5,250h5v50h-5Z" fill="#0B6E99"/><path aria-label="Node Degree: 20; Count of Records: 2" role="graphics-symbol" aria-roledescription="bar" d="M25.192307692307693,266.66666666666663h5v33.33333333333337h-5Z" fill="#0B6E99"/><path aria-label="Node Degree: 2; Count of Records: 6" role="graphics-symbol" aria-roledescription="bar" d="M21.038461538461537,200.00000000000003h5v99.99999999999997h-5Z" fill="#0B6E99"/><path aria-label="Node Degree: 328; Count of Records: 1" role="graphics-symbol" aria-roledescription="bar" d="M96.26923076923076,283.3333333333333h5v16.666666666666686h-5Z" fill="#0B6E99"/><path aria-label="Node Degree: 268; Count of Records: 1" role="graphics-symbol" aria-roledescription="bar" d="M82.42307692307692,283.3333333333333h5v16.666666666666686h-5Z" fill="#0B6E99"/><path aria-label="Node Degree: 82; Count of Records: 1" role="graphics-symbol" aria-roledescription="bar" d="M39.50000000000001,283.3333333333333h5v16.666666666666686h-5Z" fill="#0B6E99"/><path aria-label="Node Degree: 261; Count of Records: 1" role="graphics-symbol" aria-roledescription="bar" d="M80.8076923076923,283.3333333333333h5v16.666666666666686h-5Z" fill="#0B6E99"/><path aria-label="Node Degree: 244; Count of Records: 1" role="graphics-symbol" aria-roledescription="bar" d="M76.88461538461539,283.3333333333333h5v16.666666666666686h-5Z" fill="#0B6E99"/><path aria-label="Node Degree: 29; Count of Records: 3" role="graphics-symbol" aria-roledescription="bar" d="M27.26923076923077,250h5v50h-5Z" fill="#0B6E99"/><path aria-label="Node Degree: 45; Count of Records: 1" role="graphics-symbol" aria-roledescription="bar" d="M30.96153846153846,283.3333333333333h5v16.666666666666686h-5Z" fill="#0B6E99"/><path aria-label="Node Degree: 71; Count of Records: 1" role="graphics-symbol" aria-roledescription="bar" d="M36.96153846153847,283.3333333333333h5v16.666666666666686h-5Z" fill="#0B6E99"/><path aria-label="Node Degree: 60; Count of Records: 1" role="graphics-symbol" aria-roledescription="bar" d="M34.42307692307693,283.3333333333333h5v16.666666666666686h-5Z" fill="#0B6E99"/><path aria-label="Node Degree: 134; Count of Records: 1" role="graphics-symbol" aria-roledescription="bar" d="M51.5,283.3333333333333h5v16.666666666666686h-5Z" fill="#0B6E99"/><path aria-label="Node Degree: 50; Count of Records: 2" role="graphics-symbol" aria-roledescription="bar" d="M32.11538461538462,266.66666666666663h5v33.33333333333337h-5Z" fill="#0B6E99"/><path aria-label="Node Degree: 3; Count of Records: 11" role="graphics-symbol" aria-roledescription="bar" d="M21.26923076923077,116.66666666666666h5v183.33333333333334h-5Z" fill="#0B6E99"/><path aria-label="Node Degree: 275; Count of Records: 1" role="graphics-symbol" aria-roledescription="bar" d="M84.03846153846153,283.3333333333333h5v16.666666666666686h-5Z" fill="#0B6E99"/><path aria-label="Node Degree: 23; Count of Records: 2" role="graphics-symbol" aria-roledescription="bar" d="M25.884615384615383,266.66666666666663h5v33.33333333333337h-5Z" fill="#0B6E99"/><path aria-label="Node Degree: 55; Count of Records: 1" role="graphics-symbol" aria-roledescription="bar" d="M33.269230769230774,283.3333333333333h5v16.666666666666686h-5Z" fill="#0B6E99"/><path aria-label="Node Degree: 14; Count of Records: 3" role="graphics-symbol" aria-roledescription="bar" d="M23.807692307692307,250h5v50h-5Z" fill="#0B6E99"/><path aria-label="Node Degree: 64; Count of Records: 1" role="graphics-symbol" aria-roledescription="bar" d="M35.34615384615385,283.3333333333333h5v16.666666666666686h-5Z" fill="#0B6E99"/><path aria-label="Node Degree: 16; Count of Records: 2" role="graphics-symbol" aria-roledescription="bar" d="M24.269230769230766,266.66666666666663h5v33.33333333333337h-5Z" fill="#0B6E99"/><path aria-label="Node Degree: 7; Count of Records: 4" role="graphics-symbol" aria-roledescription="bar" d="M22.19230769230769,233.33333333333334h5v66.66666666666666h-5Z" fill="#0B6E99"/><path aria-label="Node Degree: 46; Count of Records: 1" role="graphics-symbol" aria-roledescription="bar" d="M31.192307692307693,283.3333333333333h5v16.666666666666686h-5Z" fill="#0B6E99"/><path aria-label="Node Degree: 5; Count of Records: 2" role="graphics-symbol" aria-roledescription="bar" d="M21.730769230769234,266.66666666666663h5v33.33333333333337h-5Z" fill="#0B6E99"/><path aria-label="Node Degree: 28; Count of Records: 1" role="graphics-symbol" aria-roledescription="bar" d="M27.03846153846154,283.3333333333333h5v16.666666666666686h-5Z" fill="#0B6E99"/><path aria-label="Node Degree: 135; Count of Records: 1" role="graphics-symbol" aria-roledescription="bar" d="M51.730769230769226,283.3333333333333h5v16.666666666666686h-5Z" fill="#0B6E99"/><path aria-label="Node Degree: 80; Count of Records: 1" role="graphics-symbol" aria-roledescription="bar" d="M39.03846153846154,283.3333333333333h5v16.666666666666686h-5Z" fill="#0B6E99"/><path aria-label="Node Degree: 63; Count of Records: 1" role="graphics-symbol" aria-roledescription="bar" d="M35.11538461538461,283.3333333333333h5v16.666666666666686h-5Z" fill="#0B6E99"/><path aria-label="Node Degree: 59; Count of Records: 2" role="graphics-symbol" aria-roledescription="bar" d="M34.19230769230769,266.66666666666663h5v33.33333333333337h-5Z" fill="#0B6E99"/><path aria-label="Node Degree: 6; Count of Records: 4" role="graphics-symbol" aria-roledescription="bar" d="M21.96153846153846,233.33333333333334h5v66.66666666666666h-5Z" fill="#0B6E99"/><path aria-label="Node Degree: 48; Count of Records: 1" role="graphics-symbol" aria-roledescription="bar" d="M31.653846153846153,283.3333333333333h5v16.666666666666686h-5Z" fill="#0B6E99"/><path aria-label="Node Degree: 93; Count of Records: 1" role="graphics-symbol" aria-roledescription="bar" d="M42.03846153846153,283.3333333333333h5v16.666666666666686h-5Z" fill="#0B6E99"/><path aria-label="Node Degree: 31; Count of Records: 2" role="graphics-symbol" aria-roledescription="bar" d="M27.73076923076923,266.66666666666663h5v33.33333333333337h-5Z" fill="#0B6E99"/><path aria-label="Node Degree: 70; Count of Records: 1" role="graphics-symbol" aria-roledescription="bar" d="M36.73076923076923,283.3333333333333h5v16.666666666666686h-5Z" fill="#0B6E99"/><path aria-label="Node Degree: 105; Count of Records: 1" role="graphics-symbol" aria-roledescription="bar" d="M44.80769230769231,283.3333333333333h5v16.666666666666686h-5Z" fill="#0B6E99"/><path aria-label="Node Degree: 314; Count of Records: 2" role="graphics-symbol" aria-roledescription="bar" d="M93.03846153846153,266.66666666666663h5v33.33333333333337h-5Z" fill="#0B6E99"/><path aria-label="Node Degree: 375; Count of Records: 1" role="graphics-symbol" aria-roledescription="bar" d="M107.11538461538461,283.3333333333333h5v16.666666666666686h-5Z" fill="#0B6E99"/><path aria-label="Node Degree: 88; Count of Records: 1" role="graphics-symbol" aria-roledescription="bar" d="M40.88461538461539,283.3333333333333h5v16.666666666666686h-5Z" fill="#0B6E99"/><path aria-label="Node Degree: 10; Count of Records: 1" role="graphics-symbol" aria-roledescription="bar" d="M22.884615384615387,283.3333333333333h5v16.666666666666686h-5Z" fill="#0B6E99"/><path aria-label="Node Degree: 83; Count of Records: 1" role="graphics-symbol" aria-roledescription="bar" d="M39.730769230769226,283.3333333333333h5v16.666666666666686h-5Z" fill="#0B6E99"/><path aria-label="Node Degree: 709; Count of Records: 1" role="graphics-symbol" aria-roledescription="bar" d="M184.1923076923077,283.3333333333333h5v16.666666666666686h-5Z" fill="#0B6E99"/><path aria-label="Node Degree: 682; Count of Records: 1" role="graphics-symbol" aria-roledescription="bar" d="M177.96153846153848,283.3333333333333h5v16.666666666666686h-5Z" fill="#0B6E99"/><path aria-label="Node Degree: 256; Count of Records: 1" role="graphics-symbol" aria-roledescription="bar" d="M79.65384615384616,283.3333333333333h5v16.666666666666686h-5Z" fill="#0B6E99"/><path aria-label="Node Degree: 21; Count of Records: 1" role="graphics-symbol" aria-roledescription="bar" d="M25.42307692307692,283.3333333333333h5v16.666666666666686h-5Z" fill="#0B6E99"/><path aria-label="Node Degree: 38; Count of Records: 1" role="graphics-symbol" aria-roledescription="bar" d="M29.346153846153847,283.3333333333333h5v16.666666666666686h-5Z" fill="#0B6E99"/><path aria-label="Node Degree: 36; Count of Records: 3" role="graphics-symbol" aria-roledescription="bar" d="M28.884615384615383,250h5v50h-5Z" fill="#0B6E99"/><path aria-label="Node Degree: 11; Count of Records: 1" role="graphics-symbol" aria-roledescription="bar" d="M23.115384615384613,283.3333333333333h5v16.666666666666686h-5Z" fill="#0B6E99"/><path aria-label="Node Degree: 4; Count of Records: 1" role="graphics-symbol" aria-roledescription="bar" d="M21.5,283.3333333333333h5v16.666666666666686h-5Z" fill="#0B6E99"/><path aria-label="Node Degree: 44; Count of Records: 1" role="graphics-symbol" aria-roledescription="bar" d="M30.730769230769234,283.3333333333333h5v16.666666666666686h-5Z" fill="#0B6E99"/></g></g><path class="foreground" aria-hidden="true" d="" display="none"/></g></g></g><path class="foreground" aria-hidden="true" d="" display="none"/></g></g></g></svg>