<svg xmlns="http://www.w3.org/2000/svg" xmlns:xlink="http://www.w3.org/1999/xlink" version="1.1" class="marks" width="675" height="349" viewBox="0 0 675 349"><rect width="675" height="349" fill="white"/><g fill="none" stroke-miterlimit="10" transform="translate(27,11)"><g class="mark-group role-frame root" role="graphics-object" aria-roledescription="group mark container"><g transform="translate(0,0)"><path class="background" aria-hidden="true" d="M0,0h0v300h0Z"/><g><g class="mark-group role-scope concat_0_group" role="graphics-object" aria-roledescription="group mark container"><g transform="translate(0,0)"><path class="background" aria-hidden="true" d="M0.5,0.5h300v300h-300Z" stroke="#ddd"/><g><g class="mark-group role-axis" aria-hidden="true"><g transform="translate(0.5,300.5)"><path class="background" aria-hidden="true" d="M0,0h0v0h0Z" pointer-events="none"/><g><g class="mark-rule role-axis-grid" pointer-events="none"><line transform="translate(150,-300)" x2="0" y2="300" stroke="#ddd" stroke-width="1" opacity="1"/></g></g><path class="foreground" aria-hidden="true" d="" pointer-events="none" display="none"/></g></g><g class="mark-group role-axis" aria-hidden="true"><g transform="translate(0.5,0.5)"><path class="background" aria-hidden="true" d="M0,0h0v0h0Z" pointer-events="none"/><g><g class="mark-rule role-axis-grid" pointer-events="none"><line transform="translate(0,300)" x2="300" y2="0" stroke="#ddd" stroke-width="1" opacity="1"/><line transform="translate(0,270)" x2="300" y2="0" stroke="#ddd" stroke-width="1" opacity="1"/><line transform="translate(0,240)" x2="300" y2="0" stroke="#ddd" stroke-width="1" opacity="1"/><line transform="translate(0,210)" x2="300" y2="0" stroke="#ddd" stroke-width="1" opacity="1"/><line transform="translate(0,180)" x2="300" y2="0" stroke="#ddd" stroke-width="1" opacity="1"/><line transform="translate(0,150)" x2="300" y2="0" stroke="#ddd" stroke-width="1" opacity="1"/><line transform="translate(0,120)" x2="300" y2="0" stroke="#ddd" stroke-width="1" opacity="1"/><line transform="translate(0,90)" x2="300" y2="0" stroke="#ddd" stroke-width="1" opacity="1"/><line transform="translate(0,60)" x2="300" y2="0" stroke="#ddd" stroke-width="1" opacity="1"/><line transform="translate(0,30)" x2="300" y2="0" stroke="#ddd" stroke-width="1" opacity="1"/><line transform="translate(0,0)" x2="300" y2="0" stroke="#ddd" stroke-width="1" opacity="1"/></g></g><path class="foreground" aria-hidden="true" d="" pointer-events="none" display="none"/></g></g><g class="mark-group role-axis" role="graphics-symbol" aria-roledescription="axis" aria-label="X-axis titled 'Component Size' for a linear scale with values from 199 to 199"><g transform="translate(0.5,300.5)"><path class="background" aria-hidden="true" d="M0,0h0v0h0Z" pointer-events="none"/><g><g class="mark-rule role-axis-tick" pointer-events="none"><line transform="translate(150,0)" x2="0" y2="5" stroke="#888" stroke-width="1" opacity="1"/></g><g class="mark-text role-axis-label" pointer-events="none"><text text-anchor="middle" transform="translate(150,15)" font-family="sans-serif" font-size="10px" fill="#000" opacity="1">199</text></g><g class="mark-rule role-axis-domain" pointer-events="none"><line transform="translate(0,0)" x2="300" y2="0" stroke="#888" stroke-width="1" opacity="1"/></g><g class="mark-text role-axis-title" pointer-events="none"><text text-anchor="middle" transform="translate(150,30)" font-family="sans-serif" font-size="11px" font-weight="bold" fill="#000" opacity="1">Component Size</text></g></g><path class="foreground" aria-hidden="true" d="" pointer-events="none" display="none"/></g></g><g class="mark-group role-axis" role="graphics-symbol" aria-roledescription="axis" aria-label="Y-axis for a linear scale with values from 0.0 to 1.0"><g transform="translate(0.5,0.5)"><path class="background" aria-hidden="true" d="M0,0h0v0h0Z" pointer-events="none"/><g><g class="mark-rule role-axis-tick" pointer-events="none"><line transform="translate(0,300)" x2="-5" y2="0" stroke="#888" stroke-width="1" opacity="1"/><line transform="translate(0,270)" x2="-5" y2="0" stroke="#888" stroke-width="1" opacity="1"/><line transform="translate(0,240)" x2="-5" y2="0" stroke="#888" stroke-width="1" opacity="1"/><line transform="translate(0,210)" x2="-5" y2="0" stroke="#888" stroke-width="1" opacity="1"/><line transform="translate(0,180)" x2="-5" y2="0" stroke="#888" stroke-width="1" opacity="1"/><line transform="translate(0,150)" x2="-5" y2="0" stroke="#888" stroke-width="1" opacity="1"/><line transform="translate(0,120)" x2="-5" y2="0" stroke="#888" stroke-width="1" opacity="1"/><line transform="translate(0,90)" x2="-5" y2="0" stroke="#888" stroke-width="1" opacity="1"/><line transform="translate(0,60)" x2="-5" y2="0" stroke="#888" stroke-width="1" opacity="1"/><line transform="translate(0,30)" x2="-5" y2="0" stroke="#888" stroke-width="1" opacity="1"/><line transform="translate(0,0)" x2="-5" y2="0" stroke="#888" stroke-width="1" opacity="1"/></g><g class="mark-text role-axis-label" pointer-events="none"><text text-anchor="end" transform="translate(-7,303)" font-family="sans-serif" font-size="10px" fill="#000" opacity="1">0.0</text><text text-anchor="end" transform="translate(-7,273)" font-family="sans-serif" font-size="10px" fill="#000" opacity="1">0.1</text><text text-anchor="end" transform="translate(-7,243)" font-family="sans-serif" font-size="10px" fill="#000" opacity="1">0.2</text><text text-anchor="end" transform="translate(-7,213)" font-family="sans-serif" font-size="10px" fill="#000" opacity="1">0.3</text><text text-anchor="end" transform="translate(-7,183)" font-family="sans-serif" font-size="10px" fill="#000" opacity="1">0.4</text><text text-anchor="end" transform="translate(-7,153)" font-family="sans-serif" font-size="10px" fill="#000" opacity="1">0.5</text><text text-anchor="end" transform="translate(-7,123)" font-family="sans-serif" font-size="10px" fill="#000" opacity="1">0.6</text><text text-anchor="end" transform="translate(-7,93.00000000000001)" font-family="sans-serif" font-size="10px" fill="#000" opacity="1">0.7</text><text text-anchor="end" transform="translate(-7,62.999999999999986)" font-family="sans-serif" font-size="10px" fill="#000" opacity="1">0.8</text><text text-anchor="end" transform="translate(-7,32.99999999999999)" font-family="sans-serif" font-size="10px" fill="#000" opacity="1">0.9</text><text text-anchor="end" transform="translate(-7,3)" font-family="sans-serif" font-size="10px" fill="#000" opacity="1">1.0</text></g><g class="mark-rule role-axis-domain" pointer-events="none"><line transform="translate(0,300)" x2="0" y2="-300" stroke="#888" stroke-width="1" opacity="1"/></g></g><path class="foreground" aria-hidden="true" d="" pointer-events="none" display="none"/></g></g><g class="mark-rect role-mark concat_0_marks" role="graphics-object" aria-roledescription="rect mark container"><path aria-label="Component Size: 199; Count of Records: 1" role="graphics-symbol" aria-roledescription="bar" d="M147.5,0h5v300h-5Z" fill="#0F7B6C"/></g></g><path class="foreground" aria-hidden="true" d="" display="none"/></g></g><g class="mark-group role-scope concat_1_group" role="graphics-object" aria-roledescription="group mark container"><g transform="translate(341,0)"><path class="background" aria-hidden="true" d="M0.5,0.5h300v300h-300Z" stroke="#ddd"/><g><g class="mark-group role-axis" aria-hidden="true"><g transform="translate(0.5,300.5)"><path class="background" aria-hidden="true" d="M0,0h0v0h0Z" pointer-events="none"/><g><g class="mark-rule role-axis-grid" pointer-events="none"><line transform="translate(0,-300)" x2="0" y2="300" stroke="#ddd" stroke-width="1" opacity="1"/><line transform="translate(27,-300)" x2="0" y2="300" stroke="#ddd" stroke-width="1" opacity="1"/><line transform="translate(55,-300)" x2="0" y2="300" stroke="#ddd" stroke-width="1" opacity="1"/><line transform="translate(82,-300)" x2="0" y2="300" stroke="#ddd" stroke-width="1" opacity="1"/><line transform="translate(109,-300)" x2="0" y2="300" stroke="#ddd" stroke-width="1" opacity="1"/><line transform="translate(136,-300)" x2="0" y2="300" stroke="#ddd" stroke-width="1" opacity="1"/><line transform="translate(164,-300)" x2="0" y2="300" stroke="#ddd" stroke-width="1" opacity="1"/><line transform="translate(191,-300)" x2="0" y2="300" stroke="#ddd" stroke-width="1" opacity="1"/><line transform="translate(218,-300)" x2="0" y2="300" stroke="#ddd" stroke-width="1" opacity="1"/><line transform="translate(245,-300)" x2="0" y2="300" stroke="#ddd" stroke-width="1" opacity="1"/><line transform="translate(273,-300)" x2="0" y2="300" stroke="#ddd" stroke-width="1" opacity="1"/><line transform="translate(300,-300)" x2="0" y2="300" stroke="#ddd" stroke-width="1" opacity="1"/></g></g><path class="foreground" aria-hidden="true" d="" pointer-events="none" display="none"/></g></g><g class="mark-group role-axis" aria-hidden="true"><g transform="translate(0.5,0.5)"><path class="background" aria-hidden="true" d="M0,0h0v0h0Z" pointer-events="none"/><g><g class="mark-rule role-axis-grid" pointer-events="none"><line transform="translate(0,300)" x2="300" y2="0" stroke="#ddd" stroke-width="1" opacity="1"/><line transform="translate(0,257)" x2="300" y2="0" stroke="#ddd" stroke-width="1" opacity="1"/><line transform="translate(0,214)" x2="300" y2="0" stroke="#ddd" stroke-width="1" opacity="1"/><line transform="translate(0,171)" x2="300" y2="0" stroke="#ddd" stroke-width="1" opacity="1"/><line transform="translate(0,129)" x2="300" y2="0" stroke="#ddd" stroke-width="1" opacity="1"/><line transform="translate(0,86)" x2="300" y2="0" stroke="#ddd" stroke-width="1" opacity="1"/><line transform="translate(0,43)" x2="300" y2="0" stroke="#ddd" stroke-width="1" opacity="1"/><line transform="translate(0,0)" x2="300" y2="0" stroke="#ddd" stroke-width="1" opacity="1"/></g></g><path class="foreground" aria-hidden="true" d="" pointer-events="none" display="none"/></g></g><g class="mark-group role-axis" role="graphics-symbol" aria-roledescription="axis" aria-label="X-axis titled 'Node Degree' for a linear scale with values from −100 to 1,000"><g transform="translate(0.5,300.5)"><path class="background" aria-hidden="true" d="M0,0h0v0h0Z" pointer-events="none"/><g><g class="mark-rule role-axis-tick" pointer-events="none"><line transform="translate(0,0)" x2="0" y2="5" stroke="#888" stroke-width="1" opacity="1"/><line transform="translate(27,0)" x2="0" y2="5" stroke="#888" stroke-width="1" opacity="1"/><line transform="translate(55,0)" x2="0" y2="5" stroke="#888" stroke-width="1" opacity="1"/><line transform="translate(82,0)" x2="0" y2="5" stroke="#888" stroke-width="1" opacity="1"/><line transform="translate(109,0)" x2="0" y2="5" stroke="#888" stroke-width="1" opacity="1"/><line transform="translate(136,0)" x2="0" y2="5" stroke="#888" stroke-width="1" opacity="1"/><line transform="translate(164,0)" x2="0" y2="5" stroke="#888" stroke-width="1" opacity="1"/><line transform="translate(191,0)" x2="0" y2="5" stroke="#888" stroke-width="1" opacity="1"/><line transform="translate(218,0)" x2="0" y2="5" stroke="#888" stroke-width="1" opacity="1"/><line transform="translate(245,0)" x2="0" y2="5" stroke="#888" stroke-width="1" opacity="1"/><line transform="translate(273,0)" x2="0" y2="5" stroke="#888" stroke-width="1" opacity="1"/><line transform="translate(300,0)" x2="0" y2="5" stroke="#888" stroke-width="1" opacity="1"/></g><g class="mark-text role-axis-label" pointer-events="none"><text text-anchor="start" transform="translate(0,15)" font-family="sans-serif" font-size="10px" fill="#000" opacity="1">−100</text><text text-anchor="middle" transform="translate(27.272727272727273,15)" font-family="sans-serif" font-size="10px" fill="#000" opacity="0">0</text><text text-anchor="middle" transform="translate(54.54545454545455,15)" font-family="sans-serif" font-size="10px" fill="#000" opacity="1">100</text><text text-anchor="middle" transform="translate(81.81818181818181,15)" font-family="sans-serif" font-size="10px" fill="#000" opacity="0">200</text><text text-anchor="middle" transform="translate(109.0909090909091,15)" font-family="sans-serif" font-size="10px" fill="#000" opacity="1">300</text><text text-anchor="middle" transform="translate(136.36363636363635,15)" font-family="sans-serif" font-size="10px" fill="#000" opacity="0">400</text><text text-anchor="middle" transform="translate(163.63636363636363,15)" font-family="sans-serif" font-size="10px" fill="#000" opacity="1">500</text><text text-anchor="middle" transform="translate(190.9090909090909,15)" font-family="sans-serif" font-size="10px" fill="#000" opacity="0">600</text><text text-anchor="middle" transform="translate(218.1818181818182,15)" font-family="sans-serif" font-size="10px" fill="#000" opacity="1">700</text><text text-anchor="middle" transform="translate(245.45454545454547,15)" font-family="sans-serif" font-size="10px" fill="#000" opacity="0">800</text><text text-anchor="middle" transform="translate(272.7272727272727,15)" font-family="sans-serif" font-size="10px" fill="#000" opacity="1">900</text><text text-anchor="end" transform="translate(300,15)" font-family="sans-serif" font-size="10px" fill="#000" opacity="0">1,000</text></g><g class="mark-rule role-axis-domain" pointer-events="none"><line transform="translate(0,0)" x2="300" y2="0" stroke="#888" stroke-width="1" opacity="1"/></g><g class="mark-text role-axis-title" pointer-events="none"><text text-anchor="middle" transform="translate(150,30)" font-family="sans-serif" font-size="11px" font-weight="bold" fill="#000" opacity="1">Node Degree</text></g></g><path class="foreground" aria-hidden="true" d="" pointer-events="none" display="none"/></g></g><g class="mark-group role-axis" role="graphics-symbol" aria-roledescription="axis" aria-label="Y-axis for a linear scale with values from 0 to 14"><g transform="translate(0.5,0.5)"><path class="background" aria-hidden="true" d="M0,0h0v0h0Z" pointer-events="none"/><g><g class="mark-rule role-axis-tick" pointer-events="none"><line transform="translate(0,300)" x2="-5" y2="0" stroke="#888" stroke-width="1" opacity="1"/><line transform="translate(0,257)" x2="-5" y2="0" stroke="#888" stroke-width="1" opacity="1"/><line transform="translate(0,214)" x2="-5" y2="0" stroke="#888" stroke-width="1" opacity="1"/><line transform="translate(0,171)" x2="-5" y2="0" stroke="#888" stroke-width="1" opacity="1"/><line transform="translate(0,129)" x2="-5" y2="0" stroke="#888" stroke-width="1" opacity="1"/><line transform="translate(0,86)" x2="-5" y2="0" stroke="#888" stroke-width="1" opacity="1"/><line transform="translate(0,43)" x2="-5" y2="0" stroke="#888" stroke-width="1" opacity="1"/><line transform="translate(0,0)" x2="-5" y2="0" stroke="#888" stroke-width="1" opacity="1"/></g><g class="mark-text role-axis-label" pointer-events="none"><text text-anchor="end" transform="translate(-7,303)" font-family="sans-serif" font-size="10px" fill="#000" opacity="1">0</text><text text-anchor="end" transform="translate(-7,260.14285714285717)" font-family="sans-serif" font-size="10px" fill="#000" opacity="1">2</text><text text-anchor="end" transform="translate(-7,217.28571428571428)" font-family="sans-serif" font-size="10px" fill="#000" opacity="1">4</text><text text-anchor="end" transform="translate(-7,174.42857142857142)" font-family="sans-serif" font-size="10px" fill="#000" opacity="1">6</text><text text-anchor="end" transform="translate(-7,131.57142857142858)" font-family="sans-serif" font-size="10px" fill="#000" opacity="1">8</text><text text-anchor="end" transform="translate(-7,88.71428571428571)" font-family="sans-serif" font-size="10px" fill="#000" opacity="1">10</text><text text-anchor="end" transform="translate(-7,45.85714285714287)" font-family="sans-serif" font-size="10px" fill="#000" opacity="1">12</text><text text-anchor="end" transform="translate(-7,3)" font-family="sans-serif" font-size="10px" fill="#000" opacity="1">14</text></g><g class="mark-rule role-axis-domain" pointer-events="none"><line transform="translate(0,300)" x2="0" y2="-300" stroke="#888" stroke-width="1" opacity="1"/></g></g><path class="foreground" aria-hidden="true" d="" pointer-events="none" display="none"/></g></g><g class="mark-rect role-mark concat_1_marks" role="graphics-object" aria-roledescription="rect mark container"><path aria-label="Node Degree: 846; Count of Records: 1" role="graphics-symbol" aria-roledescription="bar" d="M255.5,278.57142857142856h5v21.428571428571445h-5Z" fill="#0B6E99"/><path aria-label="Node Degree: 911; Count of Records: 1" role="graphics-symbol" aria-roledescription="bar" d="M273.22727272727275,278.57142857142856h5v21.428571428571445h-5Z" fill="#0B6E99"/><path aria-label="Node Degree: 258; Count of Records: 1" role="graphics-symbol" aria-roledescription="bar" d="M95.13636363636363,278.57142857142856h5v21.428571428571445h-5Z" fill="#0B6E99"/><path aria-label="Node Degree: 137; Count of Records: 2" role="graphics-symbol" aria-roledescription="bar" d="M62.13636363636364,257.14285714285717h5v42.85714285714283h-5Z" fill="#0B6E99"/><path aria-label="Node Degree: 89; Count of Records: 1" role="graphics-symbol" aria-roledescription="bar" d="M49.04545454545455,278.57142857142856h5v21.428571428571445h-5Z" fill="#0B6E99"/><path aria-label="Node Degree: 202; Count of Records: 2" role="graphics-symbol" aria-roledescription="bar" d="M79.86363636363636,257.14285714285717h5v42.85714285714283h-5Z" fill="#0B6E99"/><path aria-label="Node Degree: 200; Count of Records: 1" role="graphics-symbol" aria-roledescription="bar" d="M79.31818181818181,278.57142857142856h5v21.428571428571445h-5Z" fill="#0B6E99"/><path aria-label="Node Degree: 247; Count of Records: 1" role="graphics-symbol" aria-roledescription="bar" d="M92.13636363636363,278.57142857142856h5v21.428571428571445h-5Z" fill="#0B6E99"/><path aria-label="Node Degree: 88; Count of Records: 2" role="graphics-symbol" aria-roledescription="bar" d="M48.772727272727266,257.14285714285717h5v42.85714285714283h-5Z" fill="#0B6E99"/><path aria-label="Node Degree: 626; Count of Records: 1" role="graphics-symbol" aria-roledescription="bar" d="M195.5,278.57142857142856h5v21.428571428571445h-5Z" fill="#0B6E99"/><path aria-label="Node Degree: 290; Count of Records: 1" role="graphics-symbol" aria-roledescription="bar" d="M103.86363636363636,278.57142857142856h5v21.428571428571445h-5Z" fill="#0B6E99"/><path aria-label="Node Degree: 52; Count of Records: 2" role="graphics-symbol" aria-roledescription="bar" d="M38.95454545454545,257.14285714285717h5v42.85714285714283h-5Z" fill="#0B6E99"/><path aria-label="Node Degree: 549; Count of Records: 1" role="graphics-symbol" aria-roledescription="bar" d="M174.5,278.57142857142856h5v21.428571428571445h-5Z" fill="#0B6E99"/><path aria-label="Node Degree: 731; Count of Records: 1" role="graphics-symbol" aria-roledescription="bar" d="M224.13636363636365,278.57142857142856h5v21.428571428571445h-5Z" fill="#0B6E99"/><path aria-label="Node Degree: 310; Count of Records: 1" role="graphics-symbol" aria-roledescription="bar" d="M109.31818181818183,278.57142857142856h5v21.428571428571445h-5Z" fill="#0B6E99"/><path aria-label="Node Degree: 525; Count of Records: 1" role="graphics-symbol" aria-roledescription="bar" d="M167.95454545454547,278.57142857142856h5v21.428571428571445h-5Z" fill="#0B6E99"/><path aria-label="Node Degree: 9; Count of Records: 6" role="graphics-symbol" aria-roledescription="bar" d="M27.227272727272727,171.42857142857142h5v128.57142857142858h-5Z" fill="#0B6E99"/><path aria-label="Node Degree: 3; Count of Records: 14" role="graphics-symbol" aria-roledescription="bar" d="M25.590909090909093,0h5v300h-5Z" fill="#0B6E99"/><path aria-label="Node Degree: 556; Count of Records: 1" role="graphics-symbol" aria-roledescription="bar" d="M176.4090909090909,278.57142857142856h5v21.428571428571445h-5Z" fill="#0B6E99"/><path aria-label="Node Degree: 4; Count of Records: 6" role="graphics-symbol" aria-roledescription="bar" d="M25.863636363636363,171.42857142857142h5v128.57142857142858h-5Z" fill="#0B6E99"/><path aria-label="Node Degree: 50; Count of Records: 1" role="graphics-symbol" aria-roledescription="bar" d="M38.40909090909091,278.57142857142856h5v21.428571428571445h-5Z" fill="#0B6E99"/><path aria-label="Node Degree: 157; Count of Records: 1" role="graphics-symbol" aria-roledescription="bar" d="M67.5909090909091,278.57142857142856h5v21.428571428571445h-5Z" fill="#0B6E99"/><path aria-label="Node Degree: 357; Count of Records: 1" role="graphics-symbol" aria-roledescription="bar" d="M122.13636363636364,278.57142857142856h5v21.428571428571445h-5Z" fill="#0B6E99"/><path aria-label="Node Degree: 22; Count of Records: 2" role="graphics-symbol" aria-roledescription="bar" d="M30.772727272727273,257.14285714285717h5v42.85714285714283h-5Z" fill="#0B6E99"/><path aria-label="Node Degree: 245; Count of Records: 1" role="graphics-symbol" aria-roledescription="bar" d="M91.5909090909091,278.57142857142856h5v21.428571428571445h-5Z" fill="#0B6E99"/><path aria-label="Node Degree: 35; Count of Records: 3" role="graphics-symbol" aria-roledescription="bar" d="M34.31818181818182,235.71428571428572h5v64.28571428571428h-5Z" fill="#0B6E99"/><path aria-label="Node Degree: 19; Count of Records: 1" role="graphics-symbol" aria-roledescription="bar" d="M29.954545454545453,278.57142857142856h5v21.428571428571445h-5Z" fill="#0B6E99"/><path aria-label="Node Degree: 364; Count of Records: 1" role="graphics-symbol" aria-roledescription="bar" d="M124.04545454545455,278.57142857142856h5v21.428571428571445h-5Z" fill="#0B6E99"/><path aria-label="Node Degree: 132; Count of Records: 2" role="graphics-symbol" aria-roledescription="bar" d="M60.77272727272727,257.14285714285717h5v42.85714285714283h-5Z" fill="#0B6E99"/><path aria-label="Node Degree: 76; Count of Records: 1" role="graphics-symbol" aria-roledescription="bar" d="M45.5,278.57142857142856h5v21.428571428571445h-5Z" fill="#0B6E99"/><path aria-label="Node Degree: 326; Count of Records: 1" role="graphics-symbol" aria-roledescription="bar" d="M113.68181818181819,278.57142857142856h5v21.428571428571445h-5Z" fill="#0B6E99"/><path aria-label="Node Degree: 54; Count of Records: 1" role="graphics-symbol" aria-roledescription="bar" d="M39.50000000000001,278.57142857142856h5v21.428571428571445h-5Z" fill="#0B6E99"/><path aria-label="Node Degree: 401; Count of Records: 1" role="graphics-symbol" aria-roledescription="bar" d="M134.13636363636363,278.57142857142856h5v21.428571428571445h-5Z" fill="#0B6E99"/><path aria-label="Node Degree: 119; Count of Records: 1" role="graphics-symbol" aria-roledescription="bar" d="M57.22727272727273,278.57142857142856h5v21.428571428571445h-5Z" fill="#0B6E99"/><path aria-label="Node Degree: 68; Count of Records: 1" role="graphics-symbol" aria-roledescription="bar" d="M43.31818181818182,278.57142857142856h5v21.428571428571445h-5Z" fill="#0B6E99"/><path aria-label="Node Degree: 148; Count of Records: 1" role="graphics-symbol" aria-roledescription="bar" d="M65.13636363636364,278.57142857142856h5v21.428571428571445h-5Z" fill="#0B6E99"/><path aria-label="Node Degree: 67; Count of Records: 1" role="graphics-symbol" aria-roledescription="bar" d="M43.04545454545455,278.57142857142856h5v21.428571428571445h-5Z" fill="#0B6E99"/><path aria-label="Node Degree: 93; Count of Records: 2" role="graphics-symbol" aria-roledescription="bar" d="M50.13636363636363,257.14285714285717h5v42.85714285714283h-5Z" fill="#0B6E99"/><path aria-label="Node Degree: 103; Count of Records: 1" role="graphics-symbol" aria-roledescription="bar" d="M52.86363636363636,278.57142857142856h5v21.428571428571445h-5Z" fill="#0B6E99"/><path aria-label="Node Degree: 48; Count of Records: 1" role="graphics-symbol" aria-roledescription="bar" d="M37.86363636363637,278.57142857142856h5v21.428571428571445h-5Z" fill="#0B6E99"/><path aria-label="Node Degree: 30; Count of Records: 4" role="graphics-symbol" aria-roledescription="bar" d="M32.95454545454545,214.28571428571428h5v85.71428571428572h-5Z" fill="#0B6E99"/><path aria-label="Node Degree: 143; Count of Records: 1" role="graphics-symbol" aria-roledescription="bar" d="M63.77272727272728,278.57142857142856h5v21.428571428571445h-5Z" fill="#0B6E99"/><path aria-label="Node Degree: 323; Count of Records: 1" role="graphics-symbol" aria-roledescription="bar" d="M112.86363636363636,278.57142857142856h5v21.428571428571445h-5Z" fill="#0B6E99"/><path aria-label="Node Degree: 27; Count of Records: 2" role="graphics-symbol" aria-roledescription="bar" d="M32.13636363636363,257.14285714285717h5v42.85714285714283h-5Z" fill="#0B6E99"/><path aria-label="Node Degree: 28; Count of Records: 4" role="graphics-symbol" aria-roledescription="bar" d="M32.40909090909091,214.28571428571428h5v85.71428571428572h-5Z" fill="#0B6E99"/><path aria-label="Node Degree: 37; Count of Records: 2" role="graphics-symbol" aria-roledescription="bar" d="M34.86363636363636,257.14285714285717h5v42.85714285714283h-5Z" fill="#0B6E99"/><path aria-label="Node Degree: 11; Count of Records: 2" role="graphics-symbol" aria-roledescription="bar" d="M27.772727272727273,257.14285714285717h5v42.85714285714283h-5Z" fill="#0B6E99"/><path aria-label="Node Degree: 138; Count of Records: 1" role="graphics-symbol" aria-roledescription="bar" d="M62.40909090909091,278.57142857142856h5v21.428571428571445h-5Z" fill="#0B6E99"/><path aria-label="Node Degree: 162; Count of Records: 1" role="graphics-symbol" aria-roledescription="bar" d="M68.95454545454545,278.57142857142856h5v21.428571428571445h-5Z" fill="#0B6E99"/><path aria-label="Node Degree: 238; Count of Records: 1" role="graphics-symbol" aria-roledescription="bar" d="M89.68181818181817,278.57142857142856h5v21.428571428571445h-5Z" fill="#0B6E99"/><path aria-label="Node Degree: 227; Count of Records: 1" role="graphics-symbol" aria-roledescription="bar" d="M86.68181818181819,278.57142857142856h5v21.428571428571445h-5Z" fill="#0B6E99"/><path aria-label="Node Degree: 69; Count of Records: 1" role="graphics-symbol" aria-roledescription="bar" d="M43.590909090909086,278.57142857142856h5v21.428571428571445h-5Z" fill="#0B6E99"/><path aria-label="Node Degree: 186; Count of Records: 1" role="graphics-symbol" aria-roledescription="bar" d="M75.5,278.57142857142856h5v21.428571428571445h-5Z" fill="#0B6E99"/><path aria-label="Node Degree: 175; Count of Records: 1" role="graphics-symbol" aria-roledescription="bar" d="M72.5,278.57142857142856h5v21.428571428571445h-5Z" fill="#0B6E99"/><path aria-label="Node Degree: 45; Count of Records: 1" role="graphics-symbol" aria-roledescription="bar" d="M37.04545454545454,278.57142857142856h5v21.428571428571445h-5Z" fill="#0B6E99"/><path aria-label="Node Degree: 8; Count of Records: 9" role="graphics-symbol" aria-roledescription="bar" d="M26.954545454545453,107.14285714285712h5v192.8571428571429h-5Z" fill="#0B6E99"/><path aria-label="Node Degree: 83; Count of Records: 1" role="graphics-symbol" aria-roledescription="bar" d="M47.40909090909091,278.57142857142856h5v21.428571428571445h-5Z" fill="#0B6E99"/><path aria-label="Node Degree: 63; Count of Records: 1" role="graphics-symbol" aria-roledescription="bar" d="M41.95454545454546,278.57142857142856h5v21.428571428571445h-5Z" fill="#0B6E99"/><path aria-label="Node Degree: 16; Count of Records: 3" role="graphics-symbol" aria-roledescription="bar" d="M29.136363636363637,235.71428571428572h5v64.28571428571428h-5Z" fill="#0B6E99"/><path aria-label="Node Degree: 20; Count of Records: 3" role="graphics-symbol" aria-roledescription="bar" d="M30.227272727272727,235.71428571428572h5v64.28571428571428h-5Z" fill="#0B6E99"/><path aria-label="Node Degree: 188; Count of Records: 1" role="graphics-symbol" aria-roledescription="bar" d="M76.04545454545455,278.57142857142856h5v21.428571428571445h-5Z" fill="#0B6E99"/><path aria-label="Node Degree: 43; Count of Records: 2" role="graphics-symbol" aria-roledescription="bar" d="M36.5,257.14285714285717h5v42.85714285714283h-5Z" fill="#0B6E99"/><path aria-label="Node Degree: 18; Count of Records: 4" role="graphics-symbol" aria-roledescription="bar" d="M29.68181818181818,214.28571428571428h5v85.71428571428572h-5Z" fill="#0B6E99"/><path aria-label="Node Degree: 224; Count of Records: 1" role="graphics-symbol" aria-roledescription="bar" d="M85.86363636363636,278.57142857142856h5v21.428571428571445h-5Z" fill="#0B6E99"/><path aria-label="Node Degree: 99; Count of Records: 1" role="graphics-symbol" aria-roledescription="bar" d="M51.77272727272727,278.57142857142856h5v21.428571428571445h-5Z" fill="#0B6E99"/><path aria-label="Node Degree: 212; Count of Records: 1" role="graphics-symbol" aria-roledescription="bar" d="M82.5909090909091,278.57142857142856h5v21.428571428571445h-5Z" fill="#0B6E99"/><path aria-label="Node Degree: 34; Count of Records: 1" role="graphics-symbol" aria-roledescription="bar" d="M34.04545454545455,278.57142857142856h5v21.428571428571445h-5Z" fill="#0B6E99"/><path aria-label="Node Degree: 122; Count of Records: 1" role="graphics-symbol" aria-roledescription="bar" d="M58.04545454545455,278.57142857142856h5v21.428571428571445h-5Z" fill="#0B6E99"/><path aria-label="Node Degree: 267; Count of Records: 1" role="graphics-symbol" aria-roledescription="bar" d="M97.59090909090908,278.57142857142856h5v21.428571428571445h-5Z" fill="#0B6E99"/><path aria-label="Node Degree: 56; Count of Records: 2" role="graphics-symbol" aria-roledescription="bar" d="M40.04545454545455,257.14285714285717h5v42.85714285714283h-5Z" fill="#0B6E99"/><path aria-label="Node Degree: 266; Count of Records: 1" role="graphics-symbol" aria-roledescription="bar" d="M97.31818181818181,278.57142857142856h5v21.428571428571445h-5Z" fill="#0B6E99"/><path aria-label="Node Degree: 232; Count of Records: 1" role="graphics-symbol" aria-roledescription="bar" d="M88.04545454545455,278.57142857142856h5v21.428571428571445h-5Z" fill="#0B6E99"/><path aria-label="Node Degree: 64; Count of Records: 1" role="graphics-symbol" aria-roledescription="bar" d="M42.22727272727273,278.57142857142856h5v21.428571428571445h-5Z" fill="#0B6E99"/><path aria-label="Node Degree: 70; Count of Records: 1" role="graphics-symbol" aria-roledescription="bar" d="M43.86363636363636,278.57142857142856h5v21.428571428571445h-5Z" fill="#0B6E99"/><path aria-label="Node Degree: 23; Count of Records: 1" role="graphics-symbol" aria-roledescription="bar" d="M31.045454545454547,278.57142857142856h5v21.428571428571445h-5Z" fill="#0B6E99"/><path aria-label="Node Degree: 10; Count of Records: 3" role="graphics-symbol" aria-roledescription="bar" d="M27.5,235.71428571428572h5v64.28571428571428h-5Z" fill="#0B6E99"/><path aria-label="Node Degree: 78; Count of Records: 2" role="graphics-symbol" aria-roledescription="bar" d="M46.04545454545454,257.14285714285717h5v42.85714285714283h-5Z" fill="#0B6E99"/><path aria-label="Node Degree: 156; Count of Records: 2" role="graphics-symbol" aria-roledescription="bar" d="M67.31818181818181,257.14285714285717h5v42.85714285714283h-5Z" fill="#0B6E99"/><path aria-label="Node Degree: 38; Count of Records: 2" role="graphics-symbol" aria-roledescription="bar" d="M35.13636363636364,257.14285714285717h5v42.85714285714283h-5Z" fill="#0B6E99"/><path aria-label="Node Degree: 42; Count of Records: 2" role="graphics-symbol" aria-roledescription="bar" d="M36.22727272727273,257.14285714285717h5v42.85714285714283h-5Z" fill="#0B6E99"/><path aria-label="Node Degree: 49; Count of Records: 1" role="graphics-symbol" aria-roledescription="bar" d="M38.13636363636364,278.57142857142856h5v21.428571428571445h-5Z" fill="#0B6E99"/><path aria-label="Node Degree: 29; Count of Records: 2" role="graphics-symbol" aria-roledescription="bar" d="M32.68181818181819,257.14285714285717h5v42.85714285714283h-5Z" fill="#0B6E99"/><path aria-label="Node Degree: 91; Count of Records: 1" role="graphics-symbol" aria-roledescription="bar" d="M49.59090909090909,278.57142857142856h5v21.428571428571445h-5Z" fill="#0B6E99"/><path aria-label="Node Degree: 21; Count of Records: 2" role="graphics-symbol" aria-roledescription="bar" d="M30.5,257.14285714285717h5v42.85714285714283h-5Z" fill="#0B6E99"/><path aria-label="Node Degree: 71; Count of Records: 1" role="graphics-symbol" aria-roledescription="bar" d="M44.13636363636364,278.57142857142856h5v21.428571428571445h-5Z" fill="#0B6E99"/><path aria-label="Node Degree: 12; Count of Records: 4" role="graphics-symbol" aria-roledescription="bar" d="M28.045454545454547,214.28571428571428h5v85.71428571428572h-5Z" fill="#0B6E99"/><path aria-label="Node Degree: 13; Count of Records: 3" role="graphics-symbol" aria-roledescription="bar" d="M28.318181818181817,235.71428571428572h5v64.28571428571428h-5Z" fill="#0B6E99"/><path aria-label="Node Degree: 44; Count of Records: 2" role="graphics-symbol" aria-roledescription="bar" d="M36.77272727272727,257.14285714285717h5v42.85714285714283h-5Z" fill="#0B6E99"/><path aria-label="Node Degree: 26; Count of Records: 2" role="graphics-symbol" aria-roledescription="bar" d="M31.863636363636367,257.14285714285717h5v42.85714285714283h-5Z" fill="#0B6E99"/><path aria-label="Node Degree: 74; Count of Records: 1" role="graphics-symbol" aria-roledescription="bar" d="M44.95454545454545,278.57142857142856h5v21.428571428571445h-5Z" fill="#0B6E99"/><path aria-label="Node Degree: 62; Count of Records: 1" role="graphics-symbol" aria-roledescription="bar" d="M41.68181818181818,278.57142857142856h5v21.428571428571445h-5Z" fill="#0B6E99"/><path aria-label="Node Degree: 33; Count of Records: 3" role="graphics-symbol" aria-roledescription="bar" d="M33.77272727272727,235.71428571428572h5v64.28571428571428h-5Z" fill="#0B6E99"/><path aria-label="Node Degree: 15; Count of Records: 2" role="graphics-symbol" aria-roledescription="bar" d="M28.863636363636363,257.14285714285717h5v42.85714285714283h-5Z" fill="#0B6E99"/><path aria-label="Node Degree: 41; Count of Records: 1" role="graphics-symbol" aria-roledescription="bar" d="M35.95454545454545,278.57142857142856h5v21.428571428571445h-5Z" fill="#0B6E99"/><path aria-label="Node Degree: 32; Count of Records: 1" role="graphics-symbol" aria-roledescription="bar" d="M33.5,278.57142857142856h5v21.428571428571445h-5Z" fill="#0B6E99"/><path aria-label="Node Degree: 7; Count of Records: 3" role="graphics-symbol" aria-roledescription="bar" d="M26.681818181818183,235.71428571428572h5v64.28571428571428h-5Z" fill="#0B6E99"/><path aria-label="Node Degree: 6; Count of Records: 1" role="graphics-symbol" aria-roledescription="bar" d="M26.409090909090907,278.57142857142856h5v21.428571428571445h-5Z" fill="#0B6E99"/><path aria-label="Node Degree: 31; Count of Records: 1" role="graphics-symbol" aria-roledescription="bar" d="M33.22727272727273,278.57142857142856h5v21.428571428571445h-5Z" fill="#0B6E99"/><path aria-label="Node Degree: 51; Count of Records: 2" role="graphics-symbol" aria-roledescription="bar" d="M38.68181818181818,257.14285714285717h5v42.85714285714283h-5Z" fill="#0B6E99"/><path aria-label="Node Degree: 77; Count of Records: 1" role="graphics-symbol" aria-roledescription="bar" d="M45.77272727272727,278.57142857142856h5v21.428571428571445h-5Z" fill="#0B6E99"/><path aria-label="Node Degree: 73; Count of Records: 1" role="graphics-symbol" aria-roledescription="bar" d="M44.68181818181819,278.57142857142856h5v21.428571428571445h-5Z" fill="#0B6E99"/><path aria-label="Node Degree: 101; Count of Records: 1" role="graphics-symbol" aria-roledescription="bar" d="M52.31818181818182,278.57142857142856h5v21.428571428571445h-5Z" fill="#0B6E99"/><path aria-label="Node Degree: 203; Count of Records: 1" role="graphics-symbol" aria-roledescription="bar" d="M80.13636363636364,278.57142857142856h5v21.428571428571445h-5Z" fill="#0B6E99"/><path aria-label="Node Degree: 1; Count of Records: 6" role="graphics-symbol" aria-roledescription="bar" d="M25.045454545454543,171.42857142857142h5v128.57142857142858h-5Z" fill="#0B6E99"/><path aria-label="Node Degree: 264; Count of Records: 1" role="graphics-symbol" aria-roledescription="bar" d="M96.77272727272728,278.57142857142856h5v21.428571428571445h-5Z" fill="#0B6E99"/><path aria-label="Node Degree: 46; Count of Records: 1" role="graphics-symbol" aria-roledescription="bar" d="M37.31818181818181,278.57142857142856h5v21.428571428571445h-5Z" fill="#0B6E99"/><path aria-label="Node Degree: 5; Count of Records: 2" role="graphics-symbol" aria-roledescription="bar" d="M26.136363636363637,257.14285714285717h5v42.85714285714283h-5Z" fill="#0B6E99"/><path aria-label="Node Degree: 86; Count of Records: 1" role="graphics-symbol" aria-roledescription="bar" d="M48.22727272727273,278.57142857142856h5v21.428571428571445h-5Z" fill="#0B6E99"/><path aria-label="Node Degree: 133; Count of Records: 1" role="graphics-symbol" aria-roledescription="bar" d="M61.04545454545455,278.57142857142856h5v21.428571428571445h-5Z" fill="#0B6E99"/><path aria-label="Node Degree: 36; Count of Records: 1" role="graphics-symbol" aria-roledescription="bar" d="M34.59090909090909,278.57142857142856h5v21.428571428571445h-5Z" fill="#0B6E99"/><path aria-label="Node Degree: 2; Count of Records: 2" role="graphics-symbol" aria-roledescription="bar" d="M25.318181818181817,257.14285714285717h5v42.85714285714283h-5Z" fill="#0B6E99"/><path aria-label="Node Degree: 109; Count of Records: 1" role="graphics-symbol" aria-roledescription="bar" d="M54.5,278.57142857142856h5v21.428571428571445h-5Z" fill="#0B6E99"/><path aria-label="Node Degree: 108; Count of Records: 1" role="graphics-symbol" aria-roledescription="bar" d="M54.22727272727273,278.57142857142856h5v21.428571428571445h-5Z" fill="#0B6E99"/></g></g><path class="foreground" aria-hidden="true" d="" display="none"/></g></g></g><path class="foreground" aria-hidden="true" d="" display="none"/></g></g></g></svg>